<svg xmlns="http://www.w3.org/2000/svg" version="1.1" width="16.5in" height="10.5in" viewBox = " 0 0 1485 945" >
<!-- Front--> 
<g transform="translate(22.5, 22.5) " > 
<polygon style="stroke:#000000; fill:none; stroke-width:0.9" points="10.62, 0 40.49999999999999, 0 40.49999999999999, 10.62 55.52999999999999, 10.62 55.52999999999999, 15.749999999999998 49.319999999999986, 15.749999999999998 49.319999999999986, 24.93 55.52999999999999, 24.93 55.52999999999999, 34.11 65.96999999999998, 34.11 65.96999999999998, 24.93 72.17999999999998, 24.93 72.17999999999998, 15.749999999999998 65.96999999999998, 15.749999999999998 65.96999999999998, 10.62 80.99999999999999, 10.62 80.99999999999999, 0 107.99999999999999, 0 107.99999999999999, 10.62 135, 10.62 135, 0 162, 0 162, 10.62 189, 10.62 189, 0 216, 0 216, 10.62 243, 10.62 243, 0 270, 0 270, 10.62 297, 10.62 297, 0 324, 0 324, 10.62 339.03, 10.62 339.03, 15.749999999999998 332.82, 15.749999999999998 332.82, 24.93 339.03, 24.93 339.03, 34.11 349.47, 34.11 349.47, 24.93 355.68, 24.93 355.68, 15.749999999999998 349.47, 15.749999999999998 349.47, 10.62 364.5, 10.62 364.5, 0 394.38, 0 394.38, 33.75 405, 33.75 405, 44.055 391.86, 44.055 391.86, 57.195 405, 57.195 405, 67.5 394.38, 67.5 394.38, 94.5 405, 94.5 405, 121.5 394.38, 121.5 394.38, 148.5 405, 148.5 405, 175.5 394.38, 175.5 394.38, 202.5 405, 202.5 405, 212.805 391.86, 212.805 391.86, 225.945 405, 225.945 405, 236.25 394.38, 236.25 394.38, 270 364.5, 270 364.5, 259.38 349.47, 259.38 349.47, 254.25 355.68, 254.25 355.68, 245.07 349.47, 245.07 349.47, 235.89 339.03, 235.89 339.03, 245.07 332.82, 245.07 332.82, 254.25 339.03, 254.25 339.03, 259.38 324, 259.38 324, 270 297, 270 297, 259.38 270, 259.38 270, 270 243, 270 243, 259.38 216, 259.38 216, 270 189, 270 189, 259.38 162, 259.38 162, 270 135, 270 135, 259.38 107.99999999999999, 259.38 107.99999999999999, 270 80.99999999999999, 270 80.99999999999999, 259.38 65.96999999999998, 259.38 65.96999999999998, 254.25 72.17999999999998, 254.25 72.17999999999998, 245.07 65.96999999999998, 245.07 65.96999999999998, 235.89 55.52999999999999, 235.89 55.52999999999999, 245.07 49.319999999999986, 245.07 49.319999999999986, 254.25 55.52999999999999, 254.25 55.52999999999999, 259.38 40.49999999999999, 259.38 40.49999999999999, 270 10.62, 270 10.62, 236.25 0, 236.25 0, 225.945 13.139999999999999, 225.945 13.139999999999999, 212.805 0, 212.805 0, 202.5 10.62, 202.5 10.62, 175.5 0, 175.5 0, 148.5 10.62, 148.5 10.62, 121.5 0, 121.5 0, 94.5 10.62, 94.5 10.62, 67.5 0, 67.5 0, 57.195 13.139999999999999, 57.195 13.139999999999999, 44.055 0, 44.055 0, 33.75 10.62, 33.75 "/> 
</g>
<!-- Back--> 
<g transform="translate(427.5, 22.5) " > 
<polygon style="stroke:#000000; fill:none; stroke-width:0.9" points="10.62, 0 40.49999999999999, 0 40.49999999999999, 10.62 55.52999999999999, 10.62 55.52999999999999, 15.749999999999998 49.319999999999986, 15.749999999999998 49.319999999999986, 24.93 55.52999999999999, 24.93 55.52999999999999, 34.11 65.96999999999998, 34.11 65.96999999999998, 24.93 72.17999999999998, 24.93 72.17999999999998, 15.749999999999998 65.96999999999998, 15.749999999999998 65.96999999999998, 10.62 80.99999999999999, 10.62 80.99999999999999, 0 107.99999999999999, 0 107.99999999999999, 10.62 135, 10.62 135, 0 162, 0 162, 10.62 189, 10.62 189, 0 216, 0 216, 10.62 243, 10.62 243, 0 270, 0 270, 10.62 297, 10.62 297, 0 324, 0 324, 10.62 339.03, 10.62 339.03, 15.749999999999998 332.82, 15.749999999999998 332.82, 24.93 339.03, 24.93 339.03, 34.11 349.47, 34.11 349.47, 24.93 355.68, 24.93 355.68, 15.749999999999998 349.47, 15.749999999999998 349.47, 10.62 364.5, 10.62 364.5, 0 394.38, 0 394.38, 33.75 405, 33.75 405, 44.055 391.86, 44.055 391.86, 57.195 405, 57.195 405, 67.5 394.38, 67.5 394.38, 94.5 405, 94.5 405, 121.5 394.38, 121.5 394.38, 148.5 405, 148.5 405, 175.5 394.38, 175.5 394.38, 202.5 405, 202.5 405, 212.805 391.86, 212.805 391.86, 225.945 405, 225.945 405, 236.25 394.38, 236.25 394.38, 270 364.5, 270 364.5, 259.38 349.47, 259.38 349.47, 254.25 355.68, 254.25 355.68, 245.07 349.47, 245.07 349.47, 235.89 339.03, 235.89 339.03, 245.07 332.82, 245.07 332.82, 254.25 339.03, 254.25 339.03, 259.38 324, 259.38 324, 270 297, 270 297, 259.38 270, 259.38 270, 270 243, 270 243, 259.38 216, 259.38 216, 270 189, 270 189, 259.38 162, 259.38 162, 270 135, 270 135, 259.38 107.99999999999999, 259.38 107.99999999999999, 270 80.99999999999999, 270 80.99999999999999, 259.38 65.96999999999998, 259.38 65.96999999999998, 254.25 72.17999999999998, 254.25 72.17999999999998, 245.07 65.96999999999998, 245.07 65.96999999999998, 235.89 55.52999999999999, 235.89 55.52999999999999, 245.07 49.319999999999986, 245.07 49.319999999999986, 254.25 55.52999999999999, 254.25 55.52999999999999, 259.38 40.49999999999999, 259.38 40.49999999999999, 270 10.62, 270 10.62, 236.25 0, 236.25 0, 225.945 13.139999999999999, 225.945 13.139999999999999, 212.805 0, 212.805 0, 202.5 10.62, 202.5 10.62, 175.5 0, 175.5 0, 148.5 10.62, 148.5 10.62, 121.5 0, 121.5 0, 94.5 10.62, 94.5 10.62, 67.5 0, 67.5 0, 57.195 13.139999999999999, 57.195 13.139999999999999, 44.055 0, 44.055 0, 33.75 10.62, 33.75 "/> 
</g>
<!-- Left--> 
<g transform="translate(832.5, 22.5) " > 
<polygon style="stroke:#000000; fill:none; stroke-width:0.9" points="0, 10.62 42.75000000000001, 10.62 42.75000000000001, 0 57.555000000000014, 0 57.555000000000014, 13.139999999999999 70.69500000000001, 13.139999999999999 70.69500000000001, 0 85.50000000000001, 0 85.50000000000001, 10.62 112.50000000000001, 10.62 112.50000000000001, 0 139.5, 0 139.5, 10.62 166.5, 10.62 166.5, 0 193.5, 0 193.5, 10.62 220.5, 10.62 220.5, 0 247.5, 0 247.5, 10.62 274.5, 10.62 274.5, 0 301.5, 0 301.5, 10.62 328.5, 10.62 328.5, 0 355.5, 0 355.5, 10.62 382.5, 10.62 382.5, 0 409.5, 0 409.5, 10.62 436.5, 10.62 436.5, 0 463.5, 0 463.5, 10.62 490.5, 10.62 490.5, 0 517.5, 0 517.5, 10.62 544.5, 10.62 544.5, 0 559.305, 0 559.305, 13.139999999999999 572.445, 13.139999999999999 572.445, 0 587.25, 0 587.25, 10.62 630, 10.62 630, 33.75 619.38, 33.75 619.38, 45.405 614.25, 45.405 614.25, 39.195 605.07, 39.195 605.07, 45.405 595.89, 45.405 595.89, 55.845 605.07, 55.845 605.07, 62.055 614.25, 62.055 614.25, 55.845 619.38, 55.845 619.38, 67.5 630, 67.5 630, 94.5 619.38, 94.5 619.38, 121.5 630, 121.5 630, 148.5 619.38, 148.5 619.38, 175.5 630, 175.5 630, 202.5 619.38, 202.5 619.38, 214.155 614.25, 214.155 614.25, 207.945 605.07, 207.945 605.07, 214.155 595.89, 214.155 595.89, 224.595 605.07, 224.595 605.07, 230.805 614.25, 230.805 614.25, 224.595 619.38, 224.595 619.38, 236.25 630, 236.25 630, 259.38 587.25, 259.38 587.25, 270 572.445, 270 572.445, 256.86 559.305, 256.86 559.305, 270 544.5, 270 544.5, 259.38 517.5, 259.38 517.5, 270 490.5, 270 490.5, 259.38 463.5, 259.38 463.5, 270 436.5, 270 436.5, 259.38 409.5, 259.38 409.5, 270 382.5, 270 382.5, 259.38 355.5, 259.38 355.5, 270 328.5, 270 328.5, 259.38 301.5, 259.38 301.5, 270 274.5, 270 274.5, 259.38 247.5, 259.38 247.5, 270 220.5, 270 220.5, 259.38 193.5, 259.38 193.5, 270 166.5, 270 166.5, 259.38 139.5, 259.38 139.5, 270 112.50000000000001, 270 112.50000000000001, 259.38 85.50000000000001, 259.38 85.50000000000001, 270 70.69500000000001, 270 70.69500000000001, 256.86 57.555000000000014, 256.86 57.555000000000014, 270 42.75000000000001, 270 42.75000000000001, 259.38 0, 259.38 0, 236.25 10.62, 236.25 10.62, 224.595 15.749999999999998, 224.595 15.749999999999998, 230.805 24.93, 230.805 24.93, 224.595 34.11, 224.595 34.11, 214.155 24.93, 214.155 24.93, 207.945 15.749999999999998, 207.945 15.749999999999998, 214.155 10.62, 214.155 10.62, 202.5 0, 202.5 0, 175.5 10.62, 175.5 10.62, 148.5 0, 148.5 0, 121.5 10.62, 121.5 10.62, 94.5 0, 94.5 0, 67.5 10.62, 67.5 10.62, 55.845 15.749999999999998, 55.845 15.749999999999998, 62.055 24.93, 62.055 24.93, 55.845 34.11, 55.845 34.11, 45.405 24.93, 45.405 24.93, 39.195 15.749999999999998, 39.195 15.749999999999998, 45.405 10.62, 45.405 10.62, 33.75 0, 33.75 "/> 
</g>
<!-- Right--> 
<g transform="translate(832.5, 292.5) " > 
<polygon style="stroke:#000000; fill:none; stroke-width:0.9" points="0, 10.62 42.75000000000001, 10.62 42.75000000000001, 0 57.555000000000014, 0 57.555000000000014, 13.139999999999999 70.69500000000001, 13.139999999999999 70.69500000000001, 0 85.50000000000001, 0 85.50000000000001, 10.62 112.50000000000001, 10.62 112.50000000000001, 0 139.5, 0 139.5, 10.62 166.5, 10.62 166.5, 0 193.5, 0 193.5, 10.62 220.5, 10.62 220.5, 0 247.5, 0 247.5, 10.62 274.5, 10.62 274.5, 0 301.5, 0 301.5, 10.62 328.5, 10.62 328.5, 0 355.5, 0 355.5, 10.62 382.5, 10.62 382.5, 0 409.5, 0 409.5, 10.62 436.5, 10.62 436.5, 0 463.5, 0 463.5, 10.62 490.5, 10.62 490.5, 0 517.5, 0 517.5, 10.62 544.5, 10.62 544.5, 0 559.305, 0 559.305, 13.139999999999999 572.445, 13.139999999999999 572.445, 0 587.25, 0 587.25, 10.62 630, 10.62 630, 33.75 619.38, 33.75 619.38, 45.405 614.25, 45.405 614.25, 39.195 605.07, 39.195 605.07, 45.405 595.89, 45.405 595.89, 55.845 605.07, 55.845 605.07, 62.055 614.25, 62.055 614.25, 55.845 619.38, 55.845 619.38, 67.5 630, 67.5 630, 94.5 619.38, 94.5 619.38, 121.5 630, 121.5 630, 148.5 619.38, 148.5 619.38, 175.5 630, 175.5 630, 202.5 619.38, 202.5 619.38, 214.155 614.25, 214.155 614.25, 207.945 605.07, 207.945 605.07, 214.155 595.89, 214.155 595.89, 224.595 605.07, 224.595 605.07, 230.805 614.25, 230.805 614.25, 224.595 619.38, 224.595 619.38, 236.25 630, 236.25 630, 259.38 587.25, 259.38 587.25, 270 572.445, 270 572.445, 256.86 559.305, 256.86 559.305, 270 544.5, 270 544.5, 259.38 517.5, 259.38 517.5, 270 490.5, 270 490.5, 259.38 463.5, 259.38 463.5, 270 436.5, 270 436.5, 259.38 409.5, 259.38 409.5, 270 382.5, 270 382.5, 259.38 355.5, 259.38 355.5, 270 328.5, 270 328.5, 259.38 301.5, 259.38 301.5, 270 274.5, 270 274.5, 259.38 247.5, 259.38 247.5, 270 220.5, 270 220.5, 259.38 193.5, 259.38 193.5, 270 166.5, 270 166.5, 259.38 139.5, 259.38 139.5, 270 112.50000000000001, 270 112.50000000000001, 259.38 85.50000000000001, 259.38 85.50000000000001, 270 70.69500000000001, 270 70.69500000000001, 256.86 57.555000000000014, 256.86 57.555000000000014, 270 42.75000000000001, 270 42.75000000000001, 259.38 0, 259.38 0, 236.25 10.62, 236.25 10.62, 224.595 15.749999999999998, 224.595 15.749999999999998, 230.805 24.93, 230.805 24.93, 224.595 34.11, 224.595 34.11, 214.155 24.93, 214.155 24.93, 207.945 15.749999999999998, 207.945 15.749999999999998, 214.155 10.62, 214.155 10.62, 202.5 0, 202.5 0, 175.5 10.62, 175.5 10.62, 148.5 0, 148.5 0, 121.5 10.62, 121.5 10.62, 94.5 0, 94.5 0, 67.5 10.62, 67.5 10.62, 55.845 15.749999999999998, 55.845 15.749999999999998, 62.055 24.93, 62.055 24.93, 55.845 34.11, 55.845 34.11, 45.405 24.93, 45.405 24.93, 39.195 15.749999999999998, 39.195 15.749999999999998, 45.405 10.62, 45.405 10.62, 33.75 0, 33.75 "/> 
</g>
<!-- Top--> 
<g transform="translate(22.5, 292.5) " > 
<polygon style="stroke:#000000; fill:none; stroke-width:0.9" points="0, 10.62 40.49999999999999, 10.62 40.49999999999999, 0 54.179999999999986, 0 54.179999999999986, 13.139999999999999 67.31999999999998, 13.139999999999999 67.31999999999998, 0 80.99999999999999, 0 80.99999999999999, 10.62 107.99999999999999, 10.62 107.99999999999999, 0 135, 0 135, 10.62 162, 10.62 162, 0 189, 0 189, 10.62 216, 10.62 216, 0 243, 0 243, 10.62 270, 10.62 270, 0 297, 0 297, 10.62 324, 10.62 324, 0 337.68, 0 337.68, 13.139999999999999 350.82, 13.139999999999999 350.82, 0 364.5, 0 364.5, 10.62 405, 10.62 405, 42.75000000000001 394.38, 42.75000000000001 394.38, 58.905000000000015 389.25, 58.905000000000015 389.25, 52.695000000000014 380.07, 52.695000000000014 380.07, 58.905000000000015 370.89, 58.905000000000015 370.89, 69.34500000000001 380.07, 69.34500000000001 380.07, 75.555 389.25, 75.555 389.25, 69.34500000000001 394.38, 69.34500000000001 394.38, 85.50000000000001 405, 85.50000000000001 405, 112.50000000000001 394.38, 112.50000000000001 394.38, 139.5 405, 139.5 405, 166.5 394.38, 166.5 394.38, 193.5 405, 193.5 405, 220.5 394.38, 220.5 394.38, 247.5 405, 247.5 405, 274.5 394.38, 274.5 394.38, 301.5 405, 301.5 405, 328.5 394.38, 328.5 394.38, 355.5 405, 355.5 405, 382.5 394.38, 382.5 394.38, 409.5 405, 409.5 405, 436.5 394.38, 436.5 394.38, 463.5 405, 463.5 405, 490.5 394.38, 490.5 394.38, 517.5 405, 517.5 405, 544.5 394.38, 544.5 394.38, 560.655 389.25, 560.655 389.25, 554.445 380.07, 554.445 380.07, 560.655 370.89, 560.655 370.89, 571.095 380.07, 571.095 380.07, 577.305 389.25, 577.305 389.25, 571.095 394.38, 571.095 394.38, 587.25 405, 587.25 405, 619.38 364.5, 619.38 364.5, 630 350.82, 630 350.82, 616.86 337.68, 616.86 337.68, 630 324, 630 324, 619.38 297, 619.38 297, 630 270, 630 270, 619.38 243, 619.38 243, 630 216, 630 216, 619.38 189, 619.38 189, 630 162, 630 162, 619.38 135, 619.38 135, 630 107.99999999999999, 630 107.99999999999999, 619.38 80.99999999999999, 619.38 80.99999999999999, 630 67.31999999999998, 630 67.31999999999998, 616.86 54.179999999999986, 616.86 54.179999999999986, 630 40.49999999999999, 630 40.49999999999999, 619.38 0, 619.38 0, 587.25 10.62, 587.25 10.62, 571.095 15.749999999999998, 571.095 15.749999999999998, 577.305 24.93, 577.305 24.93, 571.095 34.11, 571.095 34.11, 560.655 24.93, 560.655 24.93, 554.445 15.749999999999998, 554.445 15.749999999999998, 560.655 10.62, 560.655 10.62, 544.5 0, 544.5 0, 517.5 10.62, 517.5 10.62, 490.5 0, 490.5 0, 463.5 10.62, 463.5 10.62, 436.5 0, 436.5 0, 409.5 10.62, 409.5 10.62, 382.5 0, 382.5 0, 355.5 10.62, 355.5 10.62, 328.5 0, 328.5 0, 301.5 10.62, 301.5 10.62, 274.5 0, 274.5 0, 247.5 10.62, 247.5 10.62, 220.5 0, 220.5 0, 193.5 10.62, 193.5 10.62, 166.5 0, 166.5 0, 139.5 10.62, 139.5 10.62, 112.50000000000001 0, 112.50000000000001 0, 85.50000000000001 10.62, 85.50000000000001 10.62, 69.34500000000001 15.749999999999998, 69.34500000000001 15.749999999999998, 75.555 24.93, 75.555 24.93, 69.34500000000001 34.11, 69.34500000000001 34.11, 58.905000000000015 24.93, 58.905000000000015 24.93, 52.695000000000014 15.749999999999998, 52.695000000000014 15.749999999999998, 58.905000000000015 10.62, 58.905000000000015 10.62, 42.75000000000001 0, 42.75000000000001 "/> 
</g>
<!-- Bottom--> 
<g transform="translate(427.5, 292.5) " > 
<polygon style="stroke:#000000; fill:none; stroke-width:0.9" points="0, 10.62 40.49999999999999, 10.62 40.49999999999999, 0 54.179999999999986, 0 54.179999999999986, 13.139999999999999 67.31999999999998, 13.139999999999999 67.31999999999998, 0 80.99999999999999, 0 80.99999999999999, 10.62 107.99999999999999, 10.62 107.99999999999999, 0 135, 0 135, 10.62 162, 10.62 162, 0 189, 0 189, 10.62 216, 10.62 216, 0 243, 0 243, 10.62 270, 10.62 270, 0 297, 0 297, 10.62 324, 10.62 324, 0 337.68, 0 337.68, 13.139999999999999 350.82, 13.139999999999999 350.82, 0 364.5, 0 364.5, 10.62 405, 10.62 405, 42.75000000000001 394.38, 42.75000000000001 394.38, 58.905000000000015 389.25, 58.905000000000015 389.25, 52.695000000000014 380.07, 52.695000000000014 380.07, 58.905000000000015 370.89, 58.905000000000015 370.89, 69.34500000000001 380.07, 69.34500000000001 380.07, 75.555 389.25, 75.555 389.25, 69.34500000000001 394.38, 69.34500000000001 394.38, 85.50000000000001 405, 85.50000000000001 405, 112.50000000000001 394.38, 112.50000000000001 394.38, 139.5 405, 139.5 405, 166.5 394.38, 166.5 394.38, 193.5 405, 193.5 405, 220.5 394.38, 220.5 394.38, 247.5 405, 247.5 405, 274.5 394.38, 274.5 394.38, 301.5 405, 301.5 405, 328.5 394.38, 328.5 394.38, 355.5 405, 355.5 405, 382.5 394.38, 382.5 394.38, 409.5 405, 409.5 405, 436.5 394.38, 436.5 394.38, 463.5 405, 463.5 405, 490.5 394.38, 490.5 394.38, 517.5 405, 517.5 405, 544.5 394.38, 544.5 394.38, 560.655 389.25, 560.655 389.25, 554.445 380.07, 554.445 380.07, 560.655 370.89, 560.655 370.89, 571.095 380.07, 571.095 380.07, 577.305 389.25, 577.305 389.25, 571.095 394.38, 571.095 394.38, 587.25 405, 587.25 405, 619.38 364.5, 619.38 364.5, 630 350.82, 630 350.82, 616.86 337.68, 616.86 337.68, 630 324, 630 324, 619.38 297, 619.38 297, 630 270, 630 270, 619.38 243, 619.38 243, 630 216, 630 216, 619.38 189, 619.38 189, 630 162, 630 162, 619.38 135, 619.38 135, 630 107.99999999999999, 630 107.99999999999999, 619.38 80.99999999999999, 619.38 80.99999999999999, 630 67.31999999999998, 630 67.31999999999998, 616.86 54.179999999999986, 616.86 54.179999999999986, 630 40.49999999999999, 630 40.49999999999999, 619.38 0, 619.38 0, 587.25 10.62, 587.25 10.62, 571.095 15.749999999999998, 571.095 15.749999999999998, 577.305 24.93, 577.305 24.93, 571.095 34.11, 571.095 34.11, 560.655 24.93, 560.655 24.93, 554.445 15.749999999999998, 554.445 15.749999999999998, 560.655 10.62, 560.655 10.62, 544.5 0, 544.5 0, 517.5 10.62, 517.5 10.62, 490.5 0, 490.5 0, 463.5 10.62, 463.5 10.62, 436.5 0, 436.5 0, 409.5 10.62, 409.5 10.62, 382.5 0, 382.5 0, 355.5 10.62, 355.5 10.62, 328.5 0, 328.5 0, 301.5 10.62, 301.5 10.62, 274.5 0, 274.5 0, 247.5 10.62, 247.5 10.62, 220.5 0, 220.5 0, 193.5 10.62, 193.5 10.62, 166.5 0, 166.5 0, 139.5 10.62, 139.5 10.62, 112.50000000000001 0, 112.50000000000001 0, 85.50000000000001 10.62, 85.50000000000001 10.62, 69.34500000000001 15.749999999999998, 69.34500000000001 15.749999999999998, 75.555 24.93, 75.555 24.93, 69.34500000000001 34.11, 69.34500000000001 34.11, 58.905000000000015 24.93, 58.905000000000015 24.93, 52.695000000000014 15.749999999999998, 52.695000000000014 15.749999999999998, 58.905000000000015 10.62, 58.905000000000015 10.62, 42.75000000000001 0, 42.75000000000001 "/> 
 <circle cx="202.5" cy="247.5" r="22.5" style="stroke:#000000;stroke-width:0.9;fill:none" /> 
 <circle cx="131.67000000000002" cy="191.7" r="8.1" style="stroke:#000000;stroke-width:0.9;fill:none" /> 
 <circle cx="273.33" cy="191.7" r="8.1" style="stroke:#000000;stroke-width:0.9;fill:none" /> 
 <circle cx="273.33" cy="92.52" r="8.1" style="stroke:#000000;stroke-width:0.9;fill:none" /> 
 <circle cx="131.67000000000002" cy="92.52" r="8.1" style="stroke:#000000;stroke-width:0.9;fill:none" /> 
</g></svg>